# xmcd
# Copyright (C) 1995-1998 Ti Kan
#
# Track frame offsets:
#       150
#       15865
#       35628
#       50940
#       71868
#       95035
#       125571
#       142825
#       165769
#       187033
#       195252
#       208133
#       218801
#
# Disc length: 3226 seconds
#
# Revision: 2
# Processed by: cddbd v1.4b42PL1 Copyright (c) Steve Scherf et al.
# Submitted via: CD-Transfer v1.0
#
DISCID=bc0c980d
DTITLE=eCHo - S hät deheim en Vogel xunge
DYEAR=1900
DGENRE=
TTITLE0=Warum isch doch die Mänschheit so falsch uf de Wält
TTITLE1=Lueged vo Bèèrge und Tal (Abendlied der Wehrliknaben)
TTITLE2=Es isch kä söllige Stamme
TTITLE3=Im Röseligaarte z' Mailand
TTITLE4=S Bättelvolch
TTITLE5=D Lüüt säged i heib e känn Stèèrn
TTITLE6=Grossmueter Schlangechöchi
TTITLE7=Steets i truure muesi lääbe
TTITLE8=Ha na men Ort es Blüemli xee
TTITLE9=Es isch keis Öpfeli nie so root
TTITLE10=Chüereihe Lobe, Lobe (Instrumental)
TTITLE11=Oberhasler Chüereihe
TTITLE12=Heimetvogel
EXTD=
EXTT0=
EXTT1=
EXTT2=
EXTT3=
EXTT4=
EXTT5=
EXTT6=
EXTT7=
EXTT8=
EXTT9=
EXTT10=
EXTT11=
EXTT12=
PLAYORDER=
